<svg xmlns="http://www.w3.org/2000/svg" xmlns:xlink="http://www.w3.org/1999/xlink" viewBox="0 0 190.98 190.98"><defs><style>.cls-1{fill:none;}.cls-2{clip-path:url(#clip-path);}.cls-3{fill:#8dc63f;opacity:0.6;}</style><clipPath id="clip-path" transform="translate(-987.38 -792.51)"><rect class="cls-1" width="2000" height="1086.64"/></clipPath></defs><g id="Layer_2" data-name="Layer 2"><g id="Layer_1-2" data-name="Layer 1"><g class="cls-2"><circle class="cls-3" cx="13.79" cy="13.79" r="13.79"/><circle class="cls-3" cx="46.47" cy="13.79" r="13.79"/><circle class="cls-3" cx="79.15" cy="13.79" r="13.79"/><circle class="cls-3" cx="111.83" cy="13.79" r="13.79"/><circle class="cls-3" cx="144.51" cy="13.79" r="13.79"/><circle class="cls-3" cx="177.19" cy="13.79" r="13.79"/><circle class="cls-3" cx="13.79" cy="46.47" r="13.79"/><circle class="cls-3" cx="46.47" cy="46.47" r="13.79"/><circle class="cls-3" cx="79.15" cy="46.47" r="13.79"/><circle class="cls-3" cx="111.83" cy="46.47" r="13.79"/><circle class="cls-3" cx="144.51" cy="46.47" r="13.79"/><circle class="cls-3" cx="177.19" cy="46.47" r="13.79"/><circle class="cls-3" cx="13.79" cy="79.15" r="13.79"/><circle class="cls-3" cx="46.47" cy="79.15" r="13.79"/><circle class="cls-3" cx="79.15" cy="79.15" r="13.79"/><circle class="cls-3" cx="111.83" cy="79.15" r="13.79"/><circle class="cls-3" cx="144.51" cy="79.15" r="13.79"/><circle class="cls-3" cx="177.19" cy="79.15" r="13.79"/><circle class="cls-3" cx="13.79" cy="111.83" r="13.79"/><circle class="cls-3" cx="46.47" cy="111.83" r="13.79"/><circle class="cls-3" cx="79.15" cy="111.83" r="13.79"/><circle class="cls-3" cx="111.83" cy="111.83" r="13.79"/><circle class="cls-3" cx="144.51" cy="111.83" r="13.79"/><circle class="cls-3" cx="177.19" cy="111.83" r="13.79"/><circle class="cls-3" cx="13.79" cy="144.51" r="13.79"/><circle class="cls-3" cx="46.47" cy="144.51" r="13.79"/><circle class="cls-3" cx="79.15" cy="144.51" r="13.79"/><circle class="cls-3" cx="111.83" cy="144.51" r="13.79"/><circle class="cls-3" cx="144.51" cy="144.51" r="13.79"/><circle class="cls-3" cx="177.19" cy="144.51" r="13.79"/><circle class="cls-3" cx="13.79" cy="177.19" r="13.79"/><circle class="cls-3" cx="46.47" cy="177.19" r="13.79"/><circle class="cls-3" cx="79.15" cy="177.19" r="13.79"/><circle class="cls-3" cx="111.83" cy="177.19" r="13.79"/><circle class="cls-3" cx="144.51" cy="177.19" r="13.79"/><circle class="cls-3" cx="177.19" cy="177.19" r="13.79"/></g></g></g></svg>