<svg xmlns="http://www.w3.org/2000/svg" xmlns:xlink="http://www.w3.org/1999/xlink" viewBox="0 0 2078.36 1140.23"><defs><style>.cls-1{fill:none;}.cls-2{clip-path:url(#clip-path);}.cls-3{fill:#21c998;opacity:0.3;}</style><clipPath id="clip-path" transform="translate(0 -22.15)"><rect class="cls-1" width="2000" height="1179.38"/></clipPath></defs><g id="Layer_2" data-name="Layer 2"><g id="Layer_1-2" data-name="Layer 1"><g class="cls-2"><path class="cls-3" d="M0,275.64C0,148.49,94.28,22.15,221.43,22.15s273.7,103.08,273.7,230.22-154.73,206-281.87,206S0,402.78,0,275.64Z" transform="translate(0 -22.15)"/><path class="cls-3" d="M1653.45,1078.41c0-58.44,43.33-116.5,101.76-116.5S1881,1009.28,1881,1067.71s-71.11,94.67-129.54,94.67S1653.45,1136.84,1653.45,1078.41Z" transform="translate(0 -22.15)"/><path class="cls-3" d="M1632,916.35c0-29.33,21.74-58.46,51.07-58.46s63.12,23.77,63.12,53.09-35.68,47.51-65,47.51S1632,945.67,1632,916.35Z" transform="translate(0 -22.15)"/><path class="cls-3" d="M1572.26,997.34c0-19.49,14.45-38.85,33.94-38.85s42,15.8,42,35.29-23.72,31.57-43.21,31.57S1572.26,1016.83,1572.26,997.34Z" transform="translate(0 -22.15)"/><path class="cls-3" d="M207.32,877.93c0-58.43,43.33-116.5,101.76-116.5s125.79,47.38,125.79,105.81-71.11,94.67-129.54,94.67S207.32,936.37,207.32,877.93Z" transform="translate(0 -22.15)"/><path class="cls-3" d="M1870.35,471.93c-24.88-52.87-10.41-123.85,42.47-148.74s134-10.71,158.87,42.16-24,115.94-76.9,140.83S1895.24,524.81,1870.35,471.93Z" transform="translate(0 -22.15)"/></g></g></g></svg>